<svg width="237" height="44" viewBox="0 0 237 44" fill="none" xmlns="http://www.w3.org/2000/svg">
<path d="M14.6667 2.068L1.37867 22L14.6667 41.932L27.9547 22L14.6667 2.068ZM14.6667 0L29.3333 22L14.6667 44L3.8147e-06 22L14.6667 0Z" fill="#FFC22D"/>
<path d="M10.6773 16.852L9.36711 18.612L8.81955 24.1853V18.0547L10.6773 16.852Z" fill="#FFC22D"/>
<path d="M14.1191 11.484L12.4178 13.2733L11.8409 15.9867V13.3613L13.1511 12.2467V12.3053L14.1191 11.484Z" fill="#FFC22D"/>
<path d="M6.40445 24.1853H8.81956L6.60978 24.596L5.67111 26.4L6.40445 24.1853Z" fill="#FFC22D"/>
<path d="M12.8089 15.356V13.7427L14.6667 12.3053V14.1093L12.8089 15.356Z" fill="#FFC22D"/>
<path d="M13.5618 26.2533H12.9849V24.4347L13.5618 24.376V26.2533Z" fill="#FFC22D"/>
<path d="M13.5618 22.308L12.9849 22.44V20.6213L13.5618 20.416V22.308Z" fill="#FFC22D"/>
<path d="M13.5618 18.612L12.9849 18.876V17.0427L13.5618 16.72V18.612Z" fill="#FFC22D"/>
<path d="M11.88 26.2533H11.4107V24.6107L11.88 24.552V26.2533Z" fill="#FFC22D"/>
<path d="M11.88 22.704L11.4107 22.8067V21.164L11.88 21.0027V22.704Z" fill="#FFC22D"/>
<path d="M11.88 19.3747L11.4107 19.58V17.9373L11.88 17.6733V19.3747Z" fill="#FFC22D"/>
<path d="M10.4329 26.2533H10.0418V24.7573L10.4329 24.7133V26.2533Z" fill="#FFC22D"/>
<path d="M10.4329 23.0413L10.0418 23.1293V21.6333L10.4329 21.5013V23.0413Z" fill="#FFC22D"/>
<path d="M10.4329 20.02L10.0418 20.196V18.7L10.4329 18.48V20.02Z" fill="#FFC22D"/>
<path d="M14.1191 11.484L14.6667 10.956L13.1511 12.2467V9.97333L14.6667 7.77333L16.1822 9.97333V12.2467L17.4925 13.3613V16.0013L20.5236 18.04V24.1707H22.9289L23.6622 26.4H20.5333H14.6667V14.2413V14.1093L16.5244 15.356V13.7427L14.6667 12.3053V11.0293L14.1191 11.484ZM14.1876 10.34L13.728 10.7653V11.6453L14.1876 11.2493V10.34ZM16.3484 17.0427L15.7618 16.72V18.612L16.3484 18.876V17.0427ZM16.3484 20.6213L15.7618 20.416V22.308L16.3484 22.44V20.6213ZM16.3484 24.4347L15.7618 24.376V26.2533H16.3484V24.4347ZM18.9005 26.2533H19.2916V24.7573L18.9005 24.7133V26.2533ZM18.9005 23.0413L19.2916 23.1293V21.6333L18.9005 21.5013V23.0413ZM18.9005 20.02L19.2916 20.196V18.7L18.9005 18.48V20.02ZM17.4533 26.2533H17.9325V24.6107L17.4533 24.552V26.2533ZM17.4533 22.704L17.9325 22.8213V21.1787L17.4533 21.0173V22.704ZM17.4533 19.3747L17.9325 19.5947V17.952L17.4533 17.688V19.3747ZM15.0676 11.264L15.5271 11.66V10.78L15.0676 10.3547V11.264Z" fill="#FFC22D"/>
<path d="M14.1191 11.484L13.1511 12.3053V12.2467L14.6667 10.9707L14.1191 11.484Z" fill="#FFC22D"/>
<path d="M25.4711 26.3267L3.91111 26.4L14.6667 42.5333L25.4711 26.3267Z" fill="#FFC22D"/>
<path d="M52.1458 19.5H50.2083C50.0938 18.9427 49.8932 18.4531 49.6068 18.0312C49.3255 17.6094 48.9818 17.2552 48.5755 16.9688C48.1745 16.6771 47.7292 16.4583 47.2396 16.3125C46.75 16.1667 46.2396 16.0937 45.7083 16.0937C44.7396 16.0937 43.862 16.3385 43.0755 16.8281C42.2943 17.3177 41.6719 18.0391 41.2083 18.9922C40.75 19.9453 40.5208 21.1146 40.5208 22.5C40.5208 23.8854 40.75 25.0547 41.2083 26.0078C41.6719 26.9609 42.2943 27.6823 43.0755 28.1719C43.862 28.6615 44.7396 28.9062 45.7083 28.9062C46.2396 28.9062 46.75 28.8333 47.2396 28.6875C47.7292 28.5417 48.1745 28.3255 48.5755 28.0391C48.9818 27.7474 49.3255 27.3906 49.6068 26.9687C49.8932 26.5417 50.0938 26.0521 50.2083 25.5H52.1458C52 26.3177 51.7344 27.0495 51.349 27.6953C50.9635 28.3411 50.4844 28.8906 49.9115 29.3437C49.3385 29.7917 48.6953 30.1328 47.9818 30.3672C47.2734 30.6016 46.5156 30.7187 45.7083 30.7187C44.3438 30.7187 43.1302 30.3854 42.0677 29.7188C41.0052 29.0521 40.1693 28.1042 39.5599 26.875C38.9505 25.6458 38.6458 24.1875 38.6458 22.5C38.6458 20.8125 38.9505 19.3542 39.5599 18.125C40.1693 16.8958 41.0052 15.9479 42.0677 15.2812C43.1302 14.6146 44.3438 14.2812 45.7083 14.2812C46.5156 14.2812 47.2734 14.3984 47.9818 14.6328C48.6953 14.8672 49.3385 15.2109 49.9115 15.6641C50.4844 16.112 50.9635 16.6589 51.349 17.3047C51.7344 17.9453 52 18.6771 52.1458 19.5ZM54.4017 16.2187V14.5H66.4017V16.2187H61.3704V30.5H59.4329V16.2187H54.4017ZM69.3919 30.5V14.5H74.7982C76.0534 14.5 77.0794 14.7266 77.8763 15.1797C78.6784 15.6276 79.2721 16.2344 79.6576 17C80.043 17.7656 80.2357 18.6198 80.2357 19.5625C80.2357 20.5052 80.043 21.362 79.6576 22.1328C79.2773 22.9036 78.6888 23.5182 77.8919 23.9766C77.0951 24.4297 76.0742 24.6562 74.8294 24.6562H70.9544V22.9375H74.7669C75.6263 22.9375 76.3164 22.7891 76.8372 22.4922C77.3581 22.1953 77.7357 21.7943 77.9701 21.2891C78.2096 20.7786 78.3294 20.2031 78.3294 19.5625C78.3294 18.9219 78.2096 18.349 77.9701 17.8437C77.7357 17.3385 77.3555 16.9427 76.8294 16.6562C76.3034 16.3646 75.6055 16.2187 74.7357 16.2187H71.3294V30.5H69.3919ZM96.8568 22.5C96.8568 24.1875 96.5521 25.6458 95.9427 26.875C95.3333 28.1042 94.4974 29.0521 93.4349 29.7188C92.3724 30.3854 91.1589 30.7187 89.7943 30.7187C88.4297 30.7187 87.2161 30.3854 86.1536 29.7188C85.0911 29.0521 84.2552 28.1042 83.6458 26.875C83.0365 25.6458 82.7318 24.1875 82.7318 22.5C82.7318 20.8125 83.0365 19.3542 83.6458 18.125C84.2552 16.8958 85.0911 15.9479 86.1536 15.2812C87.2161 14.6146 88.4297 14.2812 89.7943 14.2812C91.1589 14.2812 92.3724 14.6146 93.4349 15.2812C94.4974 15.9479 95.3333 16.8958 95.9427 18.125C96.5521 19.3542 96.8568 20.8125 96.8568 22.5ZM94.9818 22.5C94.9818 21.1146 94.75 19.9453 94.2865 18.9922C93.8281 18.0391 93.2057 17.3177 92.4193 16.8281C91.638 16.3385 90.763 16.0937 89.7943 16.0937C88.8255 16.0937 87.9479 16.3385 87.1615 16.8281C86.3802 17.3177 85.7578 18.0391 85.2943 18.9922C84.8359 19.9453 84.6068 21.1146 84.6068 22.5C84.6068 23.8854 84.8359 25.0547 85.2943 26.0078C85.7578 26.9609 86.3802 27.6823 87.1615 28.1719C87.9479 28.6615 88.8255 28.9062 89.7943 28.9062C90.763 28.9062 91.638 28.6615 92.4193 28.1719C93.2057 27.6823 93.8281 26.9609 94.2865 26.0078C94.75 25.0547 94.9818 23.8854 94.9818 22.5ZM100.115 14.5H102.021V27.0937H102.177L110.927 14.5H112.802V30.5H110.865V17.9375H110.708L101.99 30.5H100.115V14.5ZM107.99 10.5H109.708C109.708 11.3437 109.417 12.0339 108.833 12.5703C108.25 13.1068 107.458 13.375 106.458 13.375C105.474 13.375 104.69 13.1068 104.107 12.5703C103.529 12.0339 103.24 11.3437 103.24 10.5H104.958C104.958 10.9062 105.07 11.263 105.294 11.5703C105.523 11.8776 105.911 12.0312 106.458 12.0312C107.005 12.0312 107.396 11.8776 107.63 11.5703C107.87 11.263 107.99 10.9062 107.99 10.5ZM126.085 30.5L120.585 23.1562H118.617V30.5H116.679V14.5H118.617V21.4375H119.46L125.867 14.5H128.179L121.71 21.5312L128.398 30.5H126.085ZM143.65 22.5C143.65 24.1875 143.345 25.6458 142.736 26.875C142.126 28.1042 141.29 29.0521 140.228 29.7188C139.165 30.3854 137.952 30.7187 136.587 30.7187C135.223 30.7187 134.009 30.3854 132.947 29.7188C131.884 29.0521 131.048 28.1042 130.439 26.875C129.829 25.6458 129.525 24.1875 129.525 22.5C129.525 20.8125 129.829 19.3542 130.439 18.125C131.048 16.8958 131.884 15.9479 132.947 15.2812C134.009 14.6146 135.223 14.2812 136.587 14.2812C137.952 14.2812 139.165 14.6146 140.228 15.2812C141.29 15.9479 142.126 16.8958 142.736 18.125C143.345 19.3542 143.65 20.8125 143.65 22.5ZM141.775 22.5C141.775 21.1146 141.543 19.9453 141.079 18.9922C140.621 18.0391 139.999 17.3177 139.212 16.8281C138.431 16.3385 137.556 16.0937 136.587 16.0937C135.618 16.0937 134.741 16.3385 133.954 16.8281C133.173 17.3177 132.551 18.0391 132.087 18.9922C131.629 19.9453 131.4 21.1146 131.4 22.5C131.4 23.8854 131.629 25.0547 132.087 26.0078C132.551 26.9609 133.173 27.6823 133.954 28.1719C134.741 28.6615 135.618 28.9062 136.587 28.9062C137.556 28.9062 138.431 28.6615 139.212 28.1719C139.999 27.6823 140.621 26.9609 141.079 26.0078C141.543 25.0547 141.775 23.8854 141.775 22.5ZM146.908 30.5V14.5H148.845V21.625H157.376V14.5H159.314V30.5H157.376V23.3437H148.845V30.5H146.908ZM162.318 16.2187V14.5H174.318V16.2187H169.286V30.5H167.349V16.2187H162.318ZM177.308 30.5V14.5H182.714C183.969 14.5 184.995 14.7266 185.792 15.1797C186.594 15.6276 187.188 16.2344 187.574 17C187.959 17.7656 188.152 18.6198 188.152 19.5625C188.152 20.5052 187.959 21.362 187.574 22.1328C187.193 22.9036 186.605 23.5182 185.808 23.9766C185.011 24.4297 183.99 24.6562 182.745 24.6562H178.87V22.9375H182.683C183.542 22.9375 184.232 22.7891 184.753 22.4922C185.274 22.1953 185.652 21.7943 185.886 21.2891C186.126 20.7786 186.245 20.2031 186.245 19.5625C186.245 18.9219 186.126 18.349 185.886 17.8437C185.652 17.3385 185.271 16.9427 184.745 16.6562C184.219 16.3646 183.521 16.2187 182.652 16.2187H179.245V30.5H177.308ZM204.773 22.5C204.773 24.1875 204.468 25.6458 203.859 26.875C203.249 28.1042 202.413 29.0521 201.351 29.7188C200.288 30.3854 199.075 30.7187 197.71 30.7187C196.346 30.7187 195.132 30.3854 194.07 29.7188C193.007 29.0521 192.171 28.1042 191.562 26.875C190.952 25.6458 190.648 24.1875 190.648 22.5C190.648 20.8125 190.952 19.3542 191.562 18.125C192.171 16.8958 193.007 15.9479 194.07 15.2812C195.132 14.6146 196.346 14.2812 197.71 14.2812C199.075 14.2812 200.288 14.6146 201.351 15.2812C202.413 15.9479 203.249 16.8958 203.859 18.125C204.468 19.3542 204.773 20.8125 204.773 22.5ZM202.898 22.5C202.898 21.1146 202.666 19.9453 202.202 18.9922C201.744 18.0391 201.122 17.3177 200.335 16.8281C199.554 16.3385 198.679 16.0937 197.71 16.0937C196.742 16.0937 195.864 16.3385 195.077 16.8281C194.296 17.3177 193.674 18.0391 193.21 18.9922C192.752 19.9453 192.523 21.1146 192.523 22.5C192.523 23.8854 192.752 25.0547 193.21 26.0078C193.674 26.9609 194.296 27.6823 195.077 28.1719C195.864 28.6615 196.742 28.9062 197.71 28.9062C198.679 28.9062 199.554 28.6615 200.335 28.1719C201.122 27.6823 201.744 26.9609 202.202 26.0078C202.666 25.0547 202.898 23.8854 202.898 22.5ZM206.656 30.5V28.7187H207.124C207.791 28.7187 208.309 28.5052 208.679 28.0781C209.049 27.651 209.314 26.9609 209.476 26.0078C209.643 25.0547 209.755 23.7917 209.812 22.2187L210.093 14.5H219.843V30.5H217.906V16.2187H211.937L211.687 22.5938C211.624 24.2708 211.471 25.6979 211.226 26.875C210.981 28.0521 210.551 28.9505 209.937 29.5703C209.322 30.1901 208.426 30.5 207.249 30.5H206.656ZM225.152 21.2188H229.714C230.86 21.2188 231.826 21.4062 232.613 21.7812C233.404 22.1562 234.003 22.6849 234.41 23.3672C234.821 24.0495 235.027 24.8542 235.027 25.7812C235.027 26.7083 234.821 27.526 234.41 28.2344C234.003 28.9427 233.404 29.4974 232.613 29.8984C231.826 30.2995 230.86 30.5 229.714 30.5H223.714V14.5H225.652V28.8125H229.714C230.443 28.8125 231.061 28.6667 231.566 28.375C232.076 28.0781 232.462 27.6979 232.722 27.2344C232.988 26.7656 233.12 26.2708 233.12 25.75C233.12 24.9844 232.826 24.3255 232.238 23.7734C231.649 23.2161 230.808 22.9375 229.714 22.9375H225.152V21.2188Z" fill="#212B31"/>
</svg>
