<svg width="43" height="40" viewBox="0 0 43 40" fill="none" xmlns="http://www.w3.org/2000/svg">
<path d="M25.3856 0.532715L24.2656 0.783975C24.2656 0.783975 15.4026 2.64448 11.5356 9.1929C7.12757 16.6584 12.0716 23.7963 12.0716 23.7963L13.2216 25.4456L14.6666 24.0251C14.6666 24.0251 15.9416 22.715 18.3366 21.9192C20.7326 21.1234 24.0726 20.8604 28.4296 23.3192C34.9176 26.9816 37.4476 32.9199 38.1906 34.8322C36.1706 35.7219 28.8826 38.6403 21.7566 34.6181C18.5096 32.786 16.7406 30.8756 15.7526 29.5822C18.4706 29.2175 20.8906 29.5098 22.9386 30.0485C27.2586 31.1836 29.7896 33.4439 29.7896 33.4439L32.0426 31.0682C32.0426 31.0682 31.2596 30.3389 29.8326 29.4668C27.9552 28.3201 25.9167 27.4473 23.7816 26.876C15.7526 25.6881 4.74557 24.9842 0.351562 37.2207L4.74657 37.251C6.33657 32.8671 8.64857 31.033 11.6806 30.4533C12.6636 31.9198 15.6526 34.9388 20.0886 37.4426C30.1206 43.1053 41.2706 37.2177 41.2706 37.2177L42.4806 36.6057L42.0866 35.323C42.0866 35.323 39.0486 25.5463 30.0966 20.4938C28.6662 19.6855 27.1283 19.0749 25.5266 18.6792C26.4676 17.5617 27.4266 16.1686 28.0946 14.1252C30.3356 7.31284 26.0606 1.44292 26.0606 1.44292L25.3856 0.532715ZM23.8206 4.41601C24.5816 5.70653 26.2666 8.90155 24.8906 13.0821C24.2006 15.1733 23.1936 16.5459 22.3606 17.3642C21.5306 18.1816 21.0336 18.38 21.0336 18.38C19.6936 18.4543 18.3016 18.4856 17.2476 18.8327C16.9936 18.9168 16.7576 19.0341 16.5256 19.1309C16.9326 18.25 17.3656 17.376 17.8486 16.5821C18.5936 15.3513 19.4003 14.1571 20.2656 13.0038L17.6336 10.9879C17.6336 10.9879 16.3206 12.6597 14.9636 14.8947C14.3336 15.934 13.7615 17.0058 13.2496 18.1053C12.7516 16.2644 12.7016 13.7938 14.4476 10.8373C16.8746 6.72624 22.0976 4.94493 23.8206 4.41601V4.41601Z" fill="#232B30"/>
</svg>
